<svg width="25" height="19" viewBox="0 0 25 19" fill="none" xmlns="http://www.w3.org/2000/svg">
<path d="M0 1.5C0 1.10218 0.131696 0.720645 0.366116 0.43934C0.600537 0.158036 0.918479 0 1.25 0H23.75C24.0815 0 24.3995 0.158036 24.6339 0.43934C24.8683 0.720645 25 1.10218 25 1.5C25 1.89782 24.8683 2.27936 24.6339 2.56066C24.3995 2.84196 24.0815 3 23.75 3H1.25C0.918479 3 0.600537 2.84196 0.366116 2.56066C0.131696 2.27936 0 1.89782 0 1.5Z" fill="black"/>
<path d="M0 9.5C0 9.10218 0.131696 8.72064 0.366116 8.43934C0.600537 8.15804 0.918479 8 1.25 8H23.75C24.0815 8 24.3995 8.15804 24.6339 8.43934C24.8683 8.72064 25 9.10218 25 9.5C25 9.89782 24.8683 10.2794 24.6339 10.5607C24.3995 10.842 24.0815 11 23.75 11H1.25C0.918479 11 0.600537 10.842 0.366116 10.5607C0.131696 10.2794 0 9.89782 0 9.5Z" fill="black"/>
<path d="M0.75 16C0.551088 16 0.360322 16.158 0.21967 16.4393C0.0790176 16.7206 0 17.1022 0 17.5C0 17.8978 0.0790176 18.2794 0.21967 18.5607C0.360322 18.842 0.551088 19 0.75 19H14.25C14.4489 19 14.6397 18.842 14.7803 18.5607C14.921 18.2794 15 17.8978 15 17.5C15 17.1022 14.921 16.7206 14.7803 16.4393C14.6397 16.158 14.4489 16 14.25 16H0.75Z" fill="black"/>
</svg>
