<svg width="22" height="20" viewBox="0 0 22 20" fill="none" xmlns="http://www.w3.org/2000/svg">
<path d="M2.16104 2.46916C3.32111 1.30889 4.87704 0.630251 6.51664 0.569415C8.15624 0.508579 9.75819 1.07005 11.001 2.14116C12.2428 1.07183 13.8426 0.510995 15.4803 0.570926C17.1179 0.630857 18.6724 1.30714 19.8327 2.46437C20.993 3.62161 21.6733 5.17439 21.7375 6.81185C21.8018 8.44932 21.2451 10.0506 20.179 11.2952L12.414 19.0852C12.0573 19.442 11.5788 19.6509 11.0746 19.6698C10.5703 19.6887 10.0775 19.5163 9.69504 19.1872L9.58504 19.0862L1.82104 11.2952C0.755532 10.0517 0.198622 8.45187 0.261658 6.81554C0.324693 5.17922 1.00303 3.62698 2.16104 2.46916V2.46916ZM3.57504 3.88316C2.75728 4.70115 2.2859 5.80261 2.25871 6.95893C2.23152 8.11526 2.65063 9.23765 3.42904 10.0932L3.57504 10.2472L11 17.6722L16.303 12.3682L12.768 8.83316L11.708 9.89316C11.4295 10.1718 11.0988 10.3929 10.7348 10.5438C10.3709 10.6946 9.98075 10.7723 9.58675 10.7724C8.79103 10.7726 8.02783 10.4567 7.46504 9.89416C6.90225 9.33164 6.58598 8.56859 6.58579 7.77287C6.5856 6.97715 6.90152 6.21395 7.46404 5.65116L9.56604 3.54816C8.72951 2.88054 7.68245 2.53285 6.61273 2.56749C5.54301 2.60213 4.52063 3.01682 3.72904 3.73716L3.57504 3.88316V3.88316ZM12.061 6.71116C12.2486 6.52369 12.5029 6.41838 12.768 6.41838C13.0332 6.41838 13.2875 6.52369 13.475 6.71116L17.717 10.9532L18.425 10.2472C19.2565 9.4163 19.7299 8.29308 19.7439 7.11773C19.7579 5.94237 19.3115 4.80818 18.5001 3.95772C17.6887 3.10726 16.5767 2.60803 15.402 2.56682C14.2273 2.5256 13.0831 2.94566 12.214 3.73716L12.061 3.88316L8.87904 7.06516C8.70571 7.23838 8.60202 7.46921 8.58764 7.71383C8.57326 7.95845 8.6492 8.19984 8.80104 8.39216L8.87904 8.47916C9.05226 8.65249 9.28309 8.75619 9.52771 8.77057C9.77233 8.78495 10.0137 8.70901 10.206 8.55716L10.293 8.47916L12.061 6.71116V6.71116Z" fill="white"/>
</svg>
