<svg width="38" height="39" viewBox="0 0 38 39" fill="none" xmlns="http://www.w3.org/2000/svg">
<g filter="url(#filter0_d_2029_3608)">
<rect x="4" y="0.941162" width="30" height="30" rx="7" fill="white"/>
</g>
<path d="M25.7162 18.9879C25.6579 18.9165 25.6006 18.8451 25.5444 18.7762C24.7716 17.8258 24.3041 17.2522 24.3041 14.5619C24.3041 13.169 23.9764 12.0262 23.3304 11.169C22.8541 10.5358 22.2102 10.0554 21.3615 9.70045C21.3506 9.69427 21.3409 9.68617 21.3327 9.67652C21.0275 8.63723 20.1922 7.94116 19.2501 7.94116C18.308 7.94116 17.473 8.63723 17.1678 9.67545C17.1596 9.68474 17.15 9.69259 17.1393 9.69866C15.1589 10.5276 14.1964 12.1179 14.1964 14.5608C14.1964 17.2522 13.7296 17.8258 12.9561 18.7751C12.8999 18.844 12.8426 18.914 12.7843 18.9869C12.6337 19.1716 12.5383 19.3963 12.5093 19.6344C12.4804 19.8725 12.5191 20.114 12.621 20.3304C12.8377 20.7947 13.2996 21.0829 13.8269 21.0829H24.6771C25.2019 21.0829 25.6607 20.7951 25.8781 20.3329C25.9804 20.1165 26.0195 19.8747 25.9908 19.6363C25.9621 19.398 25.8668 19.1729 25.7162 18.9879ZM19.2501 23.9412C19.7577 23.9407 20.2557 23.8007 20.6913 23.5358C21.1269 23.2708 21.4839 22.891 21.7244 22.4365C21.7357 22.4147 21.7413 22.3903 21.7406 22.3657C21.74 22.3411 21.733 22.3171 21.7205 22.296C21.708 22.2749 21.6903 22.2574 21.6692 22.2453C21.6481 22.2332 21.6243 22.2269 21.6001 22.2269H16.9008C16.8766 22.2268 16.8527 22.2331 16.8315 22.2452C16.8104 22.2573 16.7927 22.2747 16.7801 22.2958C16.7675 22.3169 16.7606 22.341 16.7599 22.3656C16.7592 22.3903 16.7648 22.4147 16.7761 22.4365C17.0166 22.891 17.3735 23.2708 17.8091 23.5357C18.2446 23.8006 18.7426 23.9407 19.2501 23.9412Z" fill="black"/>
<circle cx="22.5" cy="10.5" r="3" fill="#FFA800" stroke="white"/>
<defs>
<filter id="filter0_d_2029_3608" x="0" y="0.941162" width="38" height="38" filterUnits="userSpaceOnUse" color-interpolation-filters="sRGB">
<feFlood flood-opacity="0" result="BackgroundImageFix"/>
<feColorMatrix in="SourceAlpha" type="matrix" values="0 0 0 0 0 0 0 0 0 0 0 0 0 0 0 0 0 0 127 0" result="hardAlpha"/>
<feOffset dy="4"/>
<feGaussianBlur stdDeviation="2"/>
<feComposite in2="hardAlpha" operator="out"/>
<feColorMatrix type="matrix" values="0 0 0 0 0 0 0 0 0 0 0 0 0 0 0 0 0 0 0.08 0"/>
<feBlend mode="normal" in2="BackgroundImageFix" result="effect1_dropShadow_2029_3608"/>
<feBlend mode="normal" in="SourceGraphic" in2="effect1_dropShadow_2029_3608" result="shape"/>
</filter>
</defs>
</svg>
