<svg width="20" height="20" viewBox="0 0 20 20" fill="none" xmlns="http://www.w3.org/2000/svg">
<path d="M16.7162 13.0468C16.6579 12.9754 16.6006 12.9039 16.5444 12.835C15.7716 11.8846 15.3041 11.3111 15.3041 8.62071C15.3041 7.22786 14.9764 6.085 14.3304 5.22786C13.8541 4.59464 13.2102 4.11429 12.3615 3.75929C12.3506 3.75311 12.3409 3.74501 12.3327 3.73536C12.0275 2.69607 11.1922 2 10.2501 2C9.30799 2 8.47303 2.69607 8.16778 3.73429C8.15963 3.74358 8.15002 3.75143 8.13933 3.7575C6.15889 4.58643 5.19642 6.17679 5.19642 8.61964C5.19642 11.3111 4.72959 11.8846 3.9561 12.8339C3.8999 12.9029 3.84264 12.9729 3.78433 13.0457C3.63371 13.2304 3.53828 13.4551 3.50933 13.6932C3.48038 13.9313 3.51913 14.1729 3.62099 14.3893C3.83772 14.8536 4.29964 15.1418 4.82689 15.1418H15.6771C16.2019 15.1418 16.6607 14.8539 16.8781 14.3918C16.9804 14.1753 17.0195 13.9336 16.9908 13.6952C16.9621 13.4568 16.8668 13.2318 16.7162 13.0468V13.0468ZM10.2501 18C10.7577 17.9996 11.2557 17.8595 11.6913 17.5946C12.1269 17.3297 12.4839 16.9498 12.7244 16.4954C12.7357 16.4736 12.7413 16.4492 12.7406 16.4246C12.74 16.3999 12.733 16.3759 12.7205 16.3548C12.708 16.3337 12.6903 16.3162 12.6692 16.3041C12.6481 16.292 12.6243 16.2857 12.6001 16.2857H7.90082C7.87655 16.2856 7.85268 16.2919 7.83153 16.304C7.81037 16.3161 7.79265 16.3335 7.7801 16.3546C7.76754 16.3758 7.76057 16.3998 7.75988 16.4245C7.75918 16.4491 7.76478 16.4735 7.77612 16.4954C8.01657 16.9498 8.3735 17.3296 8.80905 17.5945C9.24461 17.8594 9.74255 17.9995 10.2501 18Z" fill="black"/>
<circle cx="13.5" cy="4.55859" r="3" fill="#43B0F1" stroke="white"/>
</svg>
