<svg width="20" height="21" viewBox="0 0 20 21" fill="none" xmlns="http://www.w3.org/2000/svg">
<path d="M16.7162 13.9879C16.6579 13.9165 16.6006 13.8451 16.5444 13.7762C15.7716 12.8258 15.3041 12.2522 15.3041 9.56188C15.3041 8.16902 14.9764 7.02616 14.3304 6.16902C13.8541 5.53581 13.2102 5.05545 12.3615 4.70045C12.3506 4.69427 12.3409 4.68617 12.3327 4.67652C12.0275 3.63723 11.1922 2.94116 10.2501 2.94116C9.30799 2.94116 8.47303 3.63723 8.16778 4.67545C8.15963 4.68474 8.15002 4.69259 8.13933 4.69866C6.15889 5.52759 5.19642 7.11795 5.19642 9.56081C5.19642 12.2522 4.72959 12.8258 3.9561 13.7751C3.8999 13.844 3.84264 13.914 3.78433 13.9869C3.63371 14.1716 3.53828 14.3963 3.50933 14.6344C3.48038 14.8725 3.51913 15.114 3.62099 15.3304C3.83772 15.7947 4.29964 16.0829 4.82689 16.0829H15.6771C16.2019 16.0829 16.6607 15.7951 16.8781 15.3329C16.9804 15.1165 17.0195 14.8747 16.9908 14.6363C16.9621 14.398 16.8668 14.1729 16.7162 13.9879V13.9879ZM10.2501 18.9412C10.7577 18.9407 11.2557 18.8007 11.6913 18.5358C12.1269 18.2708 12.4839 17.891 12.7244 17.4365C12.7357 17.4147 12.7413 17.3903 12.7406 17.3657C12.74 17.3411 12.733 17.3171 12.7205 17.296C12.708 17.2749 12.6903 17.2574 12.6692 17.2453C12.6481 17.2332 12.6243 17.2269 12.6001 17.2269H7.90082C7.87655 17.2268 7.85268 17.2331 7.83153 17.2452C7.81037 17.2573 7.79265 17.2747 7.7801 17.2958C7.76754 17.3169 7.76057 17.341 7.75988 17.3656C7.75918 17.3903 7.76478 17.4147 7.77612 17.4365C8.01657 17.891 8.3735 18.2708 8.80905 18.5357C9.24461 18.8006 9.74255 18.9407 10.2501 18.9412Z" fill="black"/>
<circle cx="13.5" cy="5.5" r="3" fill="#FFA800" stroke="white"/>
</svg>
