<svg width="42" height="41" viewBox="0 0 42 41" fill="none" xmlns="http://www.w3.org/2000/svg">
<path d="M21.1699 37C30.2826 37 37.6699 29.6127 37.6699 20.5C37.6699 11.3873 30.2826 4 21.1699 4C12.0572 4 4.66992 11.3873 4.66992 20.5C4.66992 29.6127 12.0572 37 21.1699 37Z" fill="#BDBDBD"/>
<path d="M33.5075 29.3581C32.7475 28.7566 31.8215 28.3234 30.8169 28.1134L26.0274 27.1509C25.5251 27.0547 25.1626 26.6041 25.1626 26.0791V24.9787C25.4705 24.5456 25.761 23.9703 26.0646 23.3687C26.3004 22.9028 26.6564 22.2006 26.8333 22.0191C27.803 21.0434 28.7399 19.9475 29.0304 18.5344C29.3012 17.2087 29.0347 16.5131 28.7224 15.9531C28.7224 14.5553 28.6788 12.8053 28.349 11.5322C28.3097 9.80844 27.9974 8.83938 27.2111 7.99063C26.6564 7.38906 25.8396 7.24906 25.1822 7.1375C24.9245 7.09375 24.5685 7.0325 24.4375 6.9625C23.2735 6.3325 22.1225 6.02406 20.7488 6C17.8725 6.11813 14.3367 7.95125 13.153 11.2194C12.7861 12.2147 12.8232 13.8488 12.8538 15.1613L12.8254 15.9509C12.5437 16.5022 12.2663 17.2022 12.5393 18.5322C12.8276 19.9475 13.7645 21.0456 14.7516 22.0344C14.9132 22.2006 15.278 22.9094 15.5182 23.3775C15.8261 23.9769 16.1188 24.55 16.4267 24.9809V26.0813C16.4267 26.6041 16.062 27.0547 15.5575 27.1531L10.7637 28.1156C9.76565 28.3278 8.83965 28.7566 8.08182 29.3581C7.84595 29.5484 7.69744 29.8263 7.67342 30.1281C7.6494 30.43 7.74986 30.7253 7.95297 30.9506C11.2158 34.5556 15.896 36.625 20.7947 36.625C25.6933 36.625 30.3757 34.5578 33.6363 30.9506C33.8395 30.7253 33.9421 30.4278 33.9159 30.1259C33.8919 29.8241 33.7434 29.5463 33.5075 29.3581Z" fill="#455A64"/>
<rect x="1.41992" y="0.75" width="39.5" height="39.5" rx="19.75" stroke="#057DCD" stroke-width="1.5"/>
</svg>
