<svg width="293" height="56" viewBox="0 0 293 56" fill="none" xmlns="http://www.w3.org/2000/svg">
<path d="M67.159 41.8645L77.4111 15.7747H85.2381L95.527 41.8645H87.847L86.2302 37.308H76.1618L74.5817 41.8645H67.159ZM78.1828 31.5388H84.2092L81.196 22.977L78.1828 31.5388ZM106.78 42.4157C105.31 42.4157 103.975 42.2075 102.774 41.791C101.574 41.3501 100.557 40.7254 99.7244 39.917C98.8915 39.1085 98.2913 38.1531 97.9238 37.0508L104.097 36.0586C104.269 36.5486 104.599 36.9405 105.089 37.2345C105.604 37.504 106.192 37.6387 106.853 37.6387C107.49 37.6387 107.992 37.5162 108.36 37.2712C108.727 37.0018 108.911 36.6465 108.911 36.2056C108.911 35.7401 108.69 35.3849 108.249 35.14C107.809 34.895 107.049 34.699 105.971 34.552L105.273 34.4418C103.068 34.0988 101.378 33.3884 100.202 32.3105C99.0262 31.2326 98.4383 29.8608 98.4383 28.1949C98.4383 27.215 98.6342 26.3209 99.0262 25.5125C99.4182 24.7041 99.9816 24.0059 100.717 23.4179C101.451 22.83 102.309 22.3768 103.289 22.0583C104.293 21.7154 105.408 21.5439 106.633 21.5439C108.005 21.5439 109.254 21.7644 110.381 22.2053C111.532 22.6218 112.5 23.222 113.284 24.0059C114.068 24.7898 114.619 25.7084 114.937 26.7618L108.837 27.754C108.421 26.7986 107.686 26.3209 106.633 26.3209C106.069 26.3209 105.616 26.4556 105.273 26.7251C104.93 26.9701 104.759 27.3008 104.759 27.7172C104.759 27.9867 104.832 28.2194 104.979 28.4154C105.151 28.5869 105.432 28.7461 105.824 28.8931C106.241 29.0156 106.804 29.1258 107.515 29.2238L108.213 29.3341C110.515 29.7015 112.267 30.412 113.467 31.4653C114.668 32.5187 115.268 33.8783 115.268 35.5442C115.268 36.5731 115.06 37.504 114.643 38.3369C114.251 39.1698 113.676 39.8925 112.916 40.5049C112.157 41.1173 111.25 41.5828 110.197 41.9012C109.168 42.2442 108.029 42.4157 106.78 42.4157ZM127.421 42.4157C125.951 42.4157 124.616 42.2075 123.415 41.791C122.215 41.3501 121.198 40.7254 120.365 39.917C119.532 39.1085 118.932 38.1531 118.565 37.0508L124.738 36.0586C124.91 36.5486 125.24 36.9405 125.73 37.2345C126.245 37.504 126.833 37.6387 127.494 37.6387C128.131 37.6387 128.633 37.5162 129.001 37.2712C129.368 37.0018 129.552 36.6465 129.552 36.2056C129.552 35.7401 129.331 35.3849 128.89 35.14C128.45 34.895 127.69 34.699 126.612 34.552L125.914 34.4418C123.709 34.0988 122.019 33.3884 120.843 32.3105C119.667 31.2326 119.079 29.8608 119.079 28.1949C119.079 27.215 119.275 26.3209 119.667 25.5125C120.059 24.7041 120.623 24.0059 121.358 23.4179C122.092 22.83 122.95 22.3768 123.93 22.0583C124.934 21.7154 126.049 21.5439 127.274 21.5439C128.645 21.5439 129.895 21.7644 131.022 22.2053C132.173 22.6218 133.141 23.222 133.925 24.0059C134.709 24.7898 135.26 25.7084 135.578 26.7618L129.478 27.754C129.062 26.7986 128.327 26.3209 127.274 26.3209C126.71 26.3209 126.257 26.4556 125.914 26.7251C125.571 26.9701 125.4 27.3008 125.4 27.7172C125.4 27.9867 125.473 28.2194 125.62 28.4154C125.792 28.5869 126.073 28.7461 126.465 28.8931C126.882 29.0156 127.445 29.1258 128.156 29.2238L128.854 29.3341C131.156 29.7015 132.908 30.412 134.108 31.4653C135.309 32.5187 135.909 33.8783 135.909 35.5442C135.909 36.5731 135.701 37.504 135.284 38.3369C134.892 39.1698 134.317 39.8925 133.557 40.5049C132.798 41.1173 131.891 41.5828 130.838 41.9012C129.809 42.2442 128.67 42.4157 127.421 42.4157ZM149.972 42.4157C148.478 42.4157 147.106 42.1585 145.857 41.644C144.607 41.1296 143.53 40.4069 142.623 39.476C141.717 38.5451 141.006 37.4427 140.492 36.1689C140.002 34.8705 139.757 33.4496 139.757 31.9063C139.757 30.4365 140.002 29.0768 140.492 27.8275C141.006 26.5536 141.717 25.4512 142.623 24.5203C143.554 23.5649 144.632 22.83 145.857 22.3156C147.082 21.8011 148.417 21.5439 149.862 21.5439C151.406 21.5439 152.79 21.8011 154.014 22.3156C155.264 22.83 156.33 23.5649 157.211 24.5203C158.093 25.4757 158.767 26.6271 159.232 27.9745C159.722 29.2973 159.967 30.7917 159.967 32.4575V33.7069H146.776C146.996 34.7602 147.4 35.5687 147.988 36.1321C148.576 36.671 149.311 36.9405 150.193 36.9405C151.491 36.9405 152.532 36.3771 153.316 35.2502L159.6 36.6465C159.11 37.8224 158.387 38.8391 157.432 39.6965C156.501 40.5539 155.386 41.2276 154.088 41.7175C152.814 42.183 151.442 42.4157 149.972 42.4157ZM149.862 26.4311C149.029 26.4311 148.343 26.7006 147.804 27.2395C147.265 27.7785 146.898 28.5624 146.702 29.5913H152.875C152.704 28.5624 152.361 27.7785 151.846 27.2395C151.332 26.7006 150.671 26.4311 149.862 26.4311ZM173.442 42.4157C171.115 42.4157 169.339 41.791 168.114 40.5416C166.889 39.2678 166.277 37.4427 166.277 35.0665V27.3498H163.117V22.0951H166.277V15.297H173.148V22.0951H177.925V27.3498H173.148V34.405C173.148 35.9974 173.834 36.7935 175.206 36.7935C175.598 36.7935 176.002 36.7445 176.419 36.6465C176.86 36.5486 177.276 36.4138 177.668 36.2423L178.587 41.1296C177.166 41.987 175.451 42.4157 173.442 42.4157ZM191.923 42.4157C190.184 42.4157 188.604 42.1217 187.183 41.5338C185.762 40.9458 184.586 40.1129 183.655 39.035C182.725 37.9327 182.075 36.6343 181.708 35.14L188.469 33.8906C188.714 34.6745 189.155 35.3237 189.792 35.8381C190.429 36.3281 191.176 36.5731 192.034 36.5731C192.891 36.5731 193.589 36.3771 194.128 35.9851C194.667 35.5932 194.936 35.0787 194.936 34.4418C194.936 33.9518 194.802 33.5476 194.532 33.2292C194.287 32.9107 193.871 32.6412 193.283 32.4207C192.695 32.2003 191.899 31.992 190.894 31.7961L190.123 31.6491C188.506 31.3551 187.122 30.8407 185.97 30.1057C184.819 29.3463 183.925 28.4277 183.288 27.3498C182.676 26.2719 182.369 25.0593 182.369 23.7119C182.369 22.487 182.614 21.3602 183.104 20.3313C183.594 19.3024 184.28 18.4082 185.162 17.6488C186.068 16.8894 187.122 16.3014 188.322 15.885C189.523 15.444 190.821 15.2235 192.217 15.2235C193.859 15.2235 195.328 15.5175 196.627 16.1055C197.95 16.6689 199.04 17.4773 199.897 18.5307C200.779 19.5841 201.379 20.8335 201.698 22.2788L195.083 23.5649C194.887 22.83 194.52 22.2298 193.981 21.7644C193.467 21.2989 192.83 21.0662 192.07 21.0662C191.311 21.0662 190.686 21.2622 190.196 21.6541C189.731 22.0461 189.498 22.536 189.498 23.124C189.498 23.5649 189.621 23.9446 189.866 24.2631C190.11 24.5571 190.502 24.8143 191.041 25.0348C191.605 25.2307 192.364 25.4145 193.32 25.586L194.055 25.7329C196.627 26.2474 198.611 27.2028 200.007 28.5991C201.404 29.9955 202.102 31.7103 202.102 33.7436C202.102 34.993 201.845 36.1566 201.33 37.2345C200.84 38.2879 200.142 39.2065 199.236 39.9904C198.329 40.7499 197.251 41.3501 196.002 41.791C194.753 42.2075 193.393 42.4157 191.923 42.4157ZM215.37 42.4157C213.043 42.4157 211.267 41.791 210.042 40.5416C208.817 39.2678 208.205 37.4427 208.205 35.0665V27.3498H205.045V22.0951H208.205V15.297H215.076V22.0951H219.853V27.3498H215.076V34.405C215.076 35.9974 215.762 36.7935 217.134 36.7935C217.526 36.7935 217.93 36.7445 218.347 36.6465C218.788 36.5486 219.204 36.4138 219.596 36.2423L220.515 41.1296C219.094 41.987 217.379 42.4157 215.37 42.4157ZM230.581 42.4157C229.625 42.4157 228.731 42.2565 227.898 41.938C227.09 41.644 226.38 41.2276 225.767 40.6886C225.155 40.1252 224.677 39.476 224.334 38.7411C223.991 38.0062 223.82 37.21 223.82 36.3526C223.82 35.0787 224.162 33.9641 224.848 33.0087C225.534 32.0533 226.49 31.3061 227.715 30.7672C228.964 30.2282 230.409 29.9588 232.051 29.9588C232.761 29.9588 233.398 30.0077 233.961 30.1057C234.525 30.2037 235.125 30.3752 235.762 30.6202V29.6648C235.762 28.8319 235.517 28.1582 235.027 27.6437C234.562 27.1048 233.949 26.8353 233.19 26.8353C232.602 26.8353 232.087 26.9946 231.646 27.313C231.206 27.607 230.899 27.999 230.728 28.4889L224.518 27.5335C224.714 26.6516 225.081 25.8432 225.62 25.1083C226.159 24.3733 226.82 23.7487 227.604 23.2342C228.388 22.6953 229.258 22.2788 230.213 21.9848C231.193 21.6909 232.234 21.5439 233.337 21.5439C234.684 21.5439 235.909 21.7521 237.011 22.1686C238.138 22.585 239.106 23.173 239.914 23.9324C240.723 24.6673 241.347 25.5615 241.788 26.6149C242.229 27.6437 242.45 28.7829 242.45 30.0322V41.8645H236.276L236.093 39.5495C235.603 40.4559 234.868 41.1663 233.888 41.6808C232.933 42.1707 231.83 42.4157 230.581 42.4157ZM230.544 35.8749C230.544 36.3648 230.74 36.7813 231.132 37.1242C231.548 37.4427 232.063 37.6019 232.675 37.6019C233.239 37.6019 233.753 37.4795 234.219 37.2345C234.709 36.965 235.088 36.6221 235.358 36.2056C235.627 35.7646 235.762 35.2624 235.762 34.699V34.4785C235.419 34.3315 235.039 34.2091 234.623 34.1111C234.206 34.0131 233.802 33.9641 233.41 33.9641C232.528 33.9641 231.83 34.1356 231.316 34.4785C230.801 34.8215 230.544 35.2869 230.544 35.8749ZM257.232 42.4157C255.786 42.4157 254.439 42.1585 253.189 41.644C251.965 41.1296 250.887 40.4069 249.956 39.476C249.049 38.5451 248.339 37.4672 247.825 36.2423C247.31 34.993 247.053 33.6334 247.053 32.1635C247.053 30.6447 247.31 29.2483 247.825 27.9745C248.363 26.6761 249.098 25.5492 250.029 24.5938C250.96 23.6384 252.05 22.8912 253.3 22.3523C254.574 21.8134 255.945 21.5439 257.415 21.5439C258.983 21.5439 260.416 21.8501 261.715 22.4625C263.013 23.075 264.103 23.9446 264.985 25.0715C265.867 26.1739 266.455 27.46 266.749 28.9299L260.281 29.922C260.012 29.2361 259.62 28.7094 259.106 28.3419C258.616 27.95 258.064 27.754 257.452 27.754C256.791 27.754 256.203 27.9377 255.688 28.3052C255.174 28.6726 254.77 29.1748 254.476 29.8118C254.182 30.4487 254.035 31.1836 254.035 32.0165C254.035 32.8494 254.182 33.5844 254.476 34.2213C254.77 34.8337 255.174 35.3237 255.688 35.6912C256.203 36.0341 256.791 36.2056 257.452 36.2056C258.138 36.2056 258.738 36.0219 259.253 35.6544C259.792 35.2624 260.196 34.7235 260.465 34.0376L266.933 35.0297C266.712 36.1321 266.308 37.1365 265.72 38.0429C265.156 38.9248 264.446 39.6965 263.589 40.3579C262.731 41.0193 261.764 41.5215 260.686 41.8645C259.608 42.232 258.456 42.4157 257.232 42.4157ZM271.152 41.8645V14.3049H277.84V29.9588L283.976 22.0951H291.472L284.233 30.8407L292.354 41.8645H284.16L277.84 32.237V41.8645H271.152Z" fill="#E8EEF1"/>
<path d="M54.0383 14.05L13.5095 26.2176L13.5095 1.88234L54.0383 14.05Z" fill="#E8EEF1"/>
<path d="M13.6177 28.5324L54.1465 40.7001V16.3648L13.6177 28.5324Z" fill="#E8EEF1"/>
</svg>
