<svg width="50" height="50" viewBox="0 0 50 50" fill="none" xmlns="http://www.w3.org/2000/svg">
<rect opacity="0.3" width="50" height="50" rx="8" fill="#43B0F1"/>
<path d="M36.25 18.9609H30.625V15.2109C30.625 14.7137 30.4275 14.2367 30.0758 13.8851C29.7242 13.5335 29.2473 13.3359 28.75 13.3359H21.25C20.7527 13.3359 20.2758 13.5335 19.9242 13.8851C19.5725 14.2367 19.375 14.7137 19.375 15.2109V18.9609H13.75C13.2527 18.9609 12.7758 19.1585 12.4242 19.5101C12.0725 19.8617 11.875 20.3387 11.875 20.8359V33.9609C11.875 34.4582 12.0725 34.9351 12.4242 35.2868C12.7758 35.6384 13.2527 35.8359 13.75 35.8359H36.25C36.7473 35.8359 37.2242 35.6384 37.5758 35.2868C37.9275 34.9351 38.125 34.4582 38.125 33.9609V20.8359C38.125 20.3387 37.9275 19.8617 37.5758 19.5101C37.2242 19.1585 36.7473 18.9609 36.25 18.9609ZM21.25 15.2109H28.75V18.9609H21.25V15.2109ZM13.75 33.9609V20.8359H36.25V33.9609H13.75Z" fill="black"/>
</svg>
