<svg width="18" height="18" viewBox="0 0 18 18" fill="none" xmlns="http://www.w3.org/2000/svg">
<path d="M18 9.01799C18 10.65 17.598 12.156 16.794 13.536C15.99 14.916 14.898 16.008 13.518 16.812C12.138 17.616 10.632 18.018 9 18.018C7.368 18.018 5.862 17.616 4.482 16.812C3.102 16.008 2.01 14.916 1.206 13.536C0.402 12.156 0 10.65 0 9.01799C0 7.386 0.402 5.88 1.206 4.5C2.01 3.12 3.102 2.028 4.482 1.224C5.862 0.420005 7.368 0.0180054 9 0.0180054C10.632 0.0180054 12.138 0.420005 13.518 1.224C14.898 2.028 15.99 3.12 16.794 4.5C17.598 5.88 18 7.386 18 9.01799ZM11.898 13.194L13.176 11.916L10.278 9.01799L13.176 6.12L11.898 4.842L9 7.74L6.102 4.842L4.824 6.12L7.722 9.01799L4.824 11.916L6.102 13.194L9 10.296L11.898 13.194Z" fill="#BA4141"/>
</svg>
