<svg width="50" height="50" viewBox="0 0 50 50" fill="none" xmlns="http://www.w3.org/2000/svg">
<rect width="50" height="50" rx="8" fill="#E2B93B"/>
<path d="M25.7834 23.0833C28.6098 23.6944 30.8525 24.5833 32.5115 25.75C34.1705 26.9167 35 28.6111 35 30.8333C35 32.6111 34.3702 34.0278 33.1106 35.0833C31.851 36.1389 30.2074 36.8333 28.1797 37.1667V41H22.2811V37.1667C20.192 36.7778 18.4869 36 17.1659 34.8333C15.8449 33.6667 15.1229 32.1667 15 30.3333H19.3318C19.5776 32.8333 21.5438 34.0833 25.2304 34.0833C27.1352 34.0833 28.4869 33.75 29.2857 33.0833C30.0845 32.4167 30.4839 31.6944 30.4839 30.9167C30.4839 29.9722 30.0691 29.1389 29.2396 28.4167C28.4101 27.6944 26.8587 27.0833 24.5853 26.5833C18.4409 25.25 15.3687 22.8056 15.3687 19.25C15.3687 17.6389 16.0138 16.2639 17.3041 15.125C18.5945 13.9861 20.2535 13.2222 22.2811 12.8333V9H28.1797V12.9167C30.1459 13.3611 31.6667 14.1944 32.7419 15.4167C33.8172 16.6389 34.3856 18.0556 34.447 19.6667H30.1152C29.9923 17.1667 28.3641 15.9167 25.2304 15.9167C23.5714 15.9167 22.2657 16.2222 21.3134 16.8333C20.361 17.4444 19.8848 18.25 19.8848 19.25C19.8848 20.0833 20.3149 20.7917 21.1751 21.375C22.0353 21.9583 23.5714 22.5278 25.7834 23.0833Z" fill="black"/>
</svg>
