<svg width="50" height="50" viewBox="0 0 50 50" fill="none" xmlns="http://www.w3.org/2000/svg">
<rect opacity="0.3" width="50" height="50" rx="8" fill="#43B0F1"/>
<path d="M32.7607 32.0023C33.9973 32.2768 34.9785 32.6761 35.7043 33.2002C36.4301 33.7243 36.793 34.4855 36.793 35.4837C36.793 36.2823 36.5174 36.9187 35.9664 37.3929C35.4153 37.8671 34.6962 38.179 33.8091 38.3288V40.0508H31.2285V38.3288C30.3145 38.1541 29.5685 37.8047 28.9905 37.2806C28.4126 36.7565 28.0967 36.0827 28.043 35.2591H29.9381C30.0457 36.3822 30.9059 36.9437 32.5188 36.9437C33.3521 36.9437 33.9435 36.7939 34.293 36.4945C34.6424 36.195 34.8172 35.8706 34.8172 35.5212C34.8172 35.0969 34.6357 34.7225 34.2728 34.3981C33.9099 34.0737 33.2311 33.7992 32.2365 33.5745C29.5483 32.9756 28.2043 31.8775 28.2043 30.2803C28.2043 29.5565 28.4865 28.9389 29.051 28.4272C29.6155 27.9156 30.3414 27.5725 31.2285 27.3978V25.6758H33.8091V27.4352C34.6693 27.6349 35.3346 28.0092 35.8051 28.5583C36.2755 29.1073 36.5242 29.7437 36.551 30.4674H34.6559C34.6021 29.3444 33.8897 28.7829 32.5188 28.7829C31.793 28.7829 31.2217 28.9201 30.8051 29.1947C30.3884 29.4692 30.1801 29.8311 30.1801 30.2803C30.1801 30.6546 30.3682 30.9728 30.7446 31.2349C31.1209 31.4969 31.793 31.7527 32.7607 32.0023Z" fill="black"/>
<path d="M25.9375 32.5H13.75V19.375H36.25V24.0625H38.125V19.375C38.1245 18.8779 37.9268 18.4012 37.5753 18.0497C37.2238 17.6982 36.7471 17.5005 36.25 17.5H30.625V13.75C30.6245 13.2529 30.4268 12.7762 30.0753 12.4247C29.7238 12.0732 29.2471 11.8755 28.75 11.875H21.25C20.7529 11.8755 20.2762 12.0732 19.9247 12.4247C19.5732 12.7762 19.3755 13.2529 19.375 13.75V17.5H13.75C13.2529 17.5005 12.7762 17.6982 12.4247 18.0497C12.0732 18.4012 11.8755 18.8779 11.875 19.375V32.5C11.8755 32.9971 12.0732 33.4738 12.4247 33.8253C12.7762 34.1768 13.2529 34.3745 13.75 34.375H25.9375V32.5ZM21.25 13.75H28.75V17.5H21.25V13.75Z" fill="black"/>
</svg>
