<svg width="15" height="19" viewBox="0 0 15 19" fill="none" xmlns="http://www.w3.org/2000/svg">
<g clip-path="url(#clip0_4308_310)">
<path d="M9.86842 0.547654C9.52238 0.207651 9.03791 0.0375366 8.55345 0.0375366H3.36239C1.56278 0.0375366 0.074646 1.49965 0.074646 3.26793V15.8492C0.074646 17.6174 1.56272 19.0796 3.36239 19.0796H11.668C13.4676 19.0796 14.9558 17.6175 14.9558 15.8492L14.9556 6.05667C14.9556 5.54655 14.7479 5.03666 14.3672 4.69666L9.86842 0.547654ZM13.9172 15.8492C13.9172 17.0732 12.9136 18.0593 11.6678 18.0593H3.36216C2.11643 18.0593 1.11276 17.0732 1.11276 15.8492V3.2679C1.11276 2.0439 2.11638 1.05774 3.36216 1.05774H8.58795V4.11799C8.58795 5.138 9.4532 5.98815 10.4913 5.98815H13.9174V6.05615L13.9172 15.8492Z" fill="black"/>
<path d="M12.1182 11.6667C11.9798 11.3947 11.6338 11.2587 11.0454 11.2587C10.6993 11.2587 10.2841 11.2928 9.79963 11.3947C9.10755 10.6805 8.41547 9.62644 7.89627 8.60638C8.38072 6.53223 8.06941 6.12425 7.96548 5.98824C7.86155 5.85224 7.68865 5.75012 7.48102 5.75012C7.41182 5.75012 7.30789 5.75012 7.23868 5.78423C7.03106 5.85223 6.85792 6.02235 6.75423 6.22635C6.47739 6.80425 6.82343 7.85839 7.20396 8.64027C6.89264 9.8984 6.33895 11.3947 5.78507 12.6186C4.36618 13.2648 3.60492 13.8768 3.53567 14.4888C3.50096 14.6928 3.57039 15.0328 3.95092 15.3048C4.05485 15.3728 4.19326 15.4408 4.29696 15.4408C4.60851 15.4408 4.95453 15.2027 5.33508 14.6587C5.61191 14.2846 5.92346 13.7406 6.23477 13.0947C7.23838 12.6526 8.48416 12.2787 9.55696 12.0406C10.1453 12.5846 10.6643 12.8907 11.1487 12.8907C11.4948 12.8907 11.7716 12.7547 11.9792 12.4486C12.1873 12.1427 12.2565 11.8707 12.1181 11.6667L12.1182 11.6667ZM4.3319 14.7949C4.15876 14.6589 4.15876 14.5568 4.15876 14.5568C4.19348 14.3528 4.5048 13.9787 5.3008 13.5368C4.71265 14.6248 4.40111 14.795 4.33187 14.795L4.3319 14.7949ZM7.30806 6.46412C7.34277 6.39612 7.37726 6.39612 7.41198 6.362H7.4467C7.51591 6.43 7.58512 6.77 7.4467 7.55215C7.30806 7.11003 7.20413 6.66816 7.30806 6.46417L7.30806 6.46412ZM6.61598 12.2785C6.99674 11.3945 7.34279 10.4083 7.61959 9.49018C8.03484 10.2382 8.55402 10.9523 9.03848 11.5304C8.27699 11.7003 7.41175 11.9723 6.61598 12.2784V12.2785ZM11.4608 12.0745C11.3568 12.2446 11.2184 12.2446 11.1492 12.2446C10.9416 12.2446 10.6648 12.1086 10.3879 11.9046C10.6303 11.8705 10.8724 11.8705 11.0455 11.8705C11.3916 11.8705 11.53 11.9046 11.5647 11.9385C11.53 11.9723 11.53 12.0065 11.4608 12.0745L11.4608 12.0745Z" fill="black"/>
</g>
<defs>
<clipPath id="clip0_4308_310">
<rect width="15" height="19" fill="white"/>
</clipPath>
</defs>
</svg>
