<svg width="41" height="41" viewBox="0 0 41 41" fill="none" xmlns="http://www.w3.org/2000/svg">
<path d="M20.5 37C29.6127 37 37 29.6127 37 20.5C37 11.3873 29.6127 4 20.5 4C11.3873 4 4 11.3873 4 20.5C4 29.6127 11.3873 37 20.5 37Z" fill="#BDBDBD"/>
<path d="M32.8376 29.3581C32.0776 28.7566 31.1516 28.3234 30.1469 28.1134L25.3575 27.1509C24.8552 27.0547 24.4927 26.6041 24.4927 26.0791V24.9787C24.8006 24.5456 25.0911 23.9703 25.3946 23.3687C25.6305 22.9028 25.9865 22.2006 26.1634 22.0191C27.1331 21.0434 28.07 19.9475 28.3605 18.5344C28.6313 17.2087 28.3648 16.5131 28.0525 15.9531C28.0525 14.5553 28.0088 12.8053 27.6791 11.5322C27.6397 9.80844 27.3274 8.83938 26.5412 7.99063C25.9865 7.38906 25.1697 7.24906 24.5123 7.1375C24.2546 7.09375 23.8986 7.0325 23.7676 6.9625C22.6035 6.3325 21.4526 6.02406 20.0789 6C17.2026 6.11813 13.6668 7.95125 12.4831 11.2194C12.1161 12.2147 12.1533 13.8488 12.1839 15.1613L12.1555 15.9509C11.8737 16.5022 11.5964 17.2022 11.8694 18.5322C12.1576 19.9475 13.0946 21.0456 14.0817 22.0344C14.2433 22.2006 14.608 22.9094 14.8483 23.3775C15.1562 23.9769 15.4489 24.55 15.7568 24.9809V26.0813C15.7568 26.6041 15.3921 27.0547 14.8876 27.1531L10.0938 28.1156C9.09573 28.3278 8.16973 28.7566 7.4119 29.3581C7.17603 29.5484 7.02752 29.8263 7.0035 30.1281C6.97947 30.43 7.07994 30.7253 7.28304 30.9506C10.5459 34.5556 15.2261 36.625 20.1247 36.625C25.0234 36.625 29.7058 34.5578 32.9664 30.9506C33.1695 30.7253 33.2722 30.4278 33.246 30.1259C33.2219 29.8241 33.0734 29.5463 32.8376 29.3581Z" fill="#455A64"/>
<rect x="0.75" y="0.75" width="39.5" height="39.5" rx="19.75" stroke="black" stroke-width="1.5"/>
</svg>
