<svg width="40" height="40" viewBox="0 0 40 40" fill="none" xmlns="http://www.w3.org/2000/svg">
<path d="M20 40C31.0457 40 40 31.0457 40 20C40 8.9543 31.0457 0 20 0C8.9543 0 0 8.9543 0 20C0 31.0457 8.9543 40 20 40Z" fill="#43B0F1"/>
<g clip-path="url(#clip0_514_5846)">
<path fill-rule="evenodd" clip-rule="evenodd" d="M28.75 25V17.5C28.75 17.1685 28.6183 16.8505 28.3839 16.6161C28.1495 16.3817 27.8315 16.25 27.5 16.25H26.035C25.041 16.2495 24.0878 15.8543 23.385 15.1512L22.3475 14.1163C22.1137 13.8824 21.7969 13.7507 21.4663 13.75H18.535C18.2035 13.7501 17.8856 13.8818 17.6512 14.1163L16.6163 15.1512C15.9132 15.8546 14.9595 16.2498 13.965 16.25H12.5C12.1685 16.25 11.8505 16.3817 11.6161 16.6161C11.3817 16.8505 11.25 17.1685 11.25 17.5V25C11.25 25.3315 11.3817 25.6495 11.6161 25.8839C11.8505 26.1183 12.1685 26.25 12.5 26.25H27.5C27.8315 26.25 28.1495 26.1183 28.3839 25.8839C28.6183 25.6495 28.75 25.3315 28.75 25ZM12.5 15C11.837 15 11.2011 15.2634 10.7322 15.7322C10.2634 16.2011 10 16.837 10 17.5V25C10 25.663 10.2634 26.2989 10.7322 26.7678C11.2011 27.2366 11.837 27.5 12.5 27.5H27.5C28.163 27.5 28.7989 27.2366 29.2678 26.7678C29.7366 26.2989 30 25.663 30 25V17.5C30 16.837 29.7366 16.2011 29.2678 15.7322C28.7989 15.2634 28.163 15 27.5 15H26.035C25.372 14.9999 24.7362 14.7364 24.2675 14.2675L23.2325 13.2325C22.7638 12.7636 22.128 12.5001 21.465 12.5H18.535C17.872 12.5001 17.2362 12.7636 16.7675 13.2325L15.7325 14.2675C15.2638 14.7364 14.628 14.9999 13.965 15H12.5Z" fill="white"/>
<path fill-rule="evenodd" clip-rule="evenodd" d="M20 23.75C20.8288 23.75 21.6237 23.4208 22.2097 22.8347C22.7958 22.2487 23.125 21.4538 23.125 20.625C23.125 19.7962 22.7958 19.0013 22.2097 18.4153C21.6237 17.8292 20.8288 17.5 20 17.5C19.1712 17.5 18.3763 17.8292 17.7903 18.4153C17.2042 19.0013 16.875 19.7962 16.875 20.625C16.875 21.4538 17.2042 22.2487 17.7903 22.8347C18.3763 23.4208 19.1712 23.75 20 23.75ZM20 25C21.1603 25 22.2731 24.5391 23.0936 23.7186C23.9141 22.8981 24.375 21.7853 24.375 20.625C24.375 19.4647 23.9141 18.3519 23.0936 17.5314C22.2731 16.7109 21.1603 16.25 20 16.25C18.8397 16.25 17.7269 16.7109 16.9064 17.5314C16.0859 18.3519 15.625 19.4647 15.625 20.625C15.625 21.7853 16.0859 22.8981 16.9064 23.7186C17.7269 24.5391 18.8397 25 20 25Z" fill="white"/>
<path d="M13.75 18.125C13.75 18.2908 13.6842 18.4497 13.5669 18.5669C13.4497 18.6842 13.2908 18.75 13.125 18.75C12.9592 18.75 12.8003 18.6842 12.6831 18.5669C12.5658 18.4497 12.5 18.2908 12.5 18.125C12.5 17.9592 12.5658 17.8003 12.6831 17.6831C12.8003 17.5658 12.9592 17.5 13.125 17.5C13.2908 17.5 13.4497 17.5658 13.5669 17.6831C13.6842 17.8003 13.75 17.9592 13.75 18.125Z" fill="white"/>
</g>
<defs>
<clipPath id="clip0_514_5846">
<rect width="20" height="20" fill="white" transform="translate(10 10)"/>
</clipPath>
</defs>
</svg>
