<svg width="15" height="13" viewBox="0 0 15 13" fill="none" xmlns="http://www.w3.org/2000/svg">
<path d="M4.81308 0.833344C5.13931 0.833344 5.45651 0.933424 5.72259 1.11834L5.83337 1.20274L7.51542 2.60418H12.9894C13.7946 2.60418 14.4603 3.20128 14.5679 3.97684L14.5795 4.08881L14.5832 4.19793V10.5729C14.5832 11.4165 13.9278 12.1069 13.0985 12.163L12.9894 12.1667H2.01025C1.16673 12.1667 0.476259 11.5113 0.42018 10.682L0.416504 10.5729V2.42709C0.416504 1.58357 1.07183 0.893098 1.90114 0.83702L2.01025 0.833344H4.81308ZM5.83337 5.06811C5.58275 5.27693 5.275 5.40316 4.95221 5.43142L4.81308 5.43751L1.479 5.4368V10.5729C1.479 10.8419 1.67886 11.0642 1.93817 11.0994L2.01025 11.1042H12.9894C13.2584 11.1042 13.4807 10.9043 13.5159 10.645L13.5207 10.5729V4.19793C13.5207 3.92897 13.3208 3.7067 13.0615 3.67153L12.9894 3.66668H7.51471L5.83337 5.06811ZM4.81308 1.89584H2.01025C1.7413 1.89584 1.51903 2.0957 1.48386 2.35501L1.479 2.42709V4.3743L4.81308 4.37501C4.9125 4.37501 5.00941 4.34712 5.09307 4.29524L5.15317 4.25188L6.49259 3.13472L5.15317 2.01897C5.07679 1.95533 4.9845 1.91471 4.887 1.90101L4.81308 1.89584Z" fill="#212121"/>
</svg>
