<svg width="20" height="20" viewBox="0 0 20 20" fill="none" xmlns="http://www.w3.org/2000/svg">
<path d="M4.58583 3.85595L4.5835 5.62508V14.3786C4.5835 15.8743 5.79605 17.0869 7.29183 17.0869L14.4721 17.0872C14.2146 17.8152 13.5202 18.3369 12.7038 18.3369H7.29183C5.1057 18.3369 3.3335 16.5647 3.3335 14.3786V5.62508C3.3335 4.80782 3.85637 4.11268 4.58583 3.85595ZM14.7918 1.66675C15.8273 1.66675 16.6668 2.50621 16.6668 3.54175V14.3751C16.6668 15.4106 15.8273 16.2501 14.7918 16.2501H7.29183C6.2563 16.2501 5.41683 15.4106 5.41683 14.3751V3.54175C5.41683 2.50621 6.2563 1.66675 7.29183 1.66675H14.7918ZM14.7918 2.91675H7.29183C6.94665 2.91675 6.66683 3.19657 6.66683 3.54175V14.3751C6.66683 14.7202 6.94665 15.0001 7.29183 15.0001H14.7918C15.137 15.0001 15.4168 14.7202 15.4168 14.3751V3.54175C15.4168 3.19657 15.137 2.91675 14.7918 2.91675Z" fill="#212121"/>
</svg>
