<svg width="20" height="20" viewBox="0 0 20 20" fill="none" xmlns="http://www.w3.org/2000/svg">
<path fill-rule="evenodd" clip-rule="evenodd" d="M10 20C12.6522 20 15.1957 18.9464 17.0711 17.0711C18.9464 15.1957 20 12.6522 20 10C20 7.34784 18.9464 4.8043 17.0711 2.92893C15.1957 1.05357 12.6522 0 10 0C7.34784 0 4.8043 1.05357 2.92893 2.92893C1.05357 4.8043 0 7.34784 0 10C0 12.6522 1.05357 15.1957 2.92893 17.0711C4.8043 18.9464 7.34784 20 10 20ZM11.1625 8.235L8.3 8.59375L8.1975 9.06875L8.76 9.1725C9.1275 9.26 9.2 9.3925 9.12 9.75875L8.1975 14.0938C7.955 15.215 8.32875 15.7425 9.2075 15.7425C9.88875 15.7425 10.68 15.4275 11.0388 14.995L11.1487 14.475C10.8987 14.695 10.5337 14.7825 10.2913 14.7825C9.9475 14.7825 9.8225 14.5413 9.91125 14.1163L11.1625 8.235ZM10 6.875C10.3315 6.875 10.6495 6.7433 10.8839 6.50888C11.1183 6.27446 11.25 5.95652 11.25 5.625C11.25 5.29348 11.1183 4.97554 10.8839 4.74112C10.6495 4.5067 10.3315 4.375 10 4.375C9.66848 4.375 9.35054 4.5067 9.11612 4.74112C8.8817 4.97554 8.75 5.29348 8.75 5.625C8.75 5.95652 8.8817 6.27446 9.11612 6.50888C9.35054 6.7433 9.66848 6.875 10 6.875Z" fill="#2F80ED"/>
</svg>
