<svg width="129" height="25" viewBox="0 0 129 25" fill="none" xmlns="http://www.w3.org/2000/svg">
<g clip-path="url(#clip0_1667_6139)">
<path fill-rule="evenodd" clip-rule="evenodd" d="M9.86336 1.75137L15.9221 6.1372V10.1204L1.20229 22.3949L1.17773 17.0973L9.86336 1.75137Z" stroke="#FA8366" stroke-width="26.925"/>
<path fill-rule="evenodd" clip-rule="evenodd" d="M6.63841 1.75137L1.17676 6.1372V10.1204L15.8966 22.3949L15.9211 17.0973L6.63841 1.75137Z" stroke="#FA8366" stroke-width="26.925"/>
<path d="M28.9446 23.8286H25.9702V8.42296H28.8486V10.4727C29.8082 8.77517 31.7272 7.97457 33.5183 7.97457C35.4373 7.97457 37.2924 8.90332 38.1239 10.8891C39.3393 8.67916 41.3222 7.97448 43.2733 7.97448C45.9598 7.97448 48.5825 9.80018 48.5825 13.8358V23.8286H45.6081V14.156C45.6081 12.1382 44.6166 10.6329 42.3457 10.6329C40.2348 10.6329 38.7955 12.2983 38.7955 14.5083V23.8286H35.7891V14.156C35.7891 12.1703 34.8296 10.6329 32.5268 10.6329C30.3839 10.6329 28.9446 12.2343 28.9446 14.5404V23.8286ZM59.9686 21.6186C62.5273 21.6186 64.7662 19.6969 64.7662 16.1098C64.7662 12.5546 62.5273 10.6329 59.9686 10.6329C57.4099 10.6329 55.1711 12.5546 55.1711 16.1098C55.1711 19.6969 57.41 21.6186 59.9686 21.6186ZM59.9686 7.94251C64.5742 7.94251 67.8366 11.4336 67.8366 16.1098C67.8366 20.818 64.5742 24.3091 59.9687 24.3091C55.363 24.3091 52.1007 20.818 52.1007 16.1098C52.1007 11.4336 55.363 7.94251 59.9686 7.94251ZM74.649 23.8286H71.6747V0.639984H74.6491V10.6009C75.3847 9.22364 77.1758 7.97448 79.7345 7.97448C84.4041 7.97448 86.8028 11.5617 86.8028 16.0457C86.8028 20.6258 84.2121 24.245 79.6386 24.245C77.3677 24.245 75.6086 23.2522 74.6491 21.5866V23.8286H74.649ZM83.7324 16.0457C83.7324 12.7147 81.9733 10.6329 79.1907 10.6329C76.5361 10.6329 74.617 12.7147 74.617 16.0457C74.617 19.3767 76.5361 21.5546 79.1907 21.5546C81.9412 21.5546 83.7324 19.3767 83.7324 16.0457ZM93.6472 14.9247V23.8286H90.6407V8.42296H93.5833V10.6329C94.7027 8.71114 96.5257 7.97448 98.3168 7.97448C101.995 7.97448 103.818 10.6329 103.818 14.0599V23.8286H100.812V14.5724C100.812 12.4265 99.916 10.697 97.2294 10.697C94.8625 10.697 93.6472 12.5866 93.6472 14.9247ZM111.59 23.8286H108.615V8.42296H111.59V23.8286ZM107.944 2.59374C107.944 1.37664 108.903 0.415833 110.087 0.415833C111.302 0.415833 112.262 1.37672 112.262 2.59374C112.262 3.77878 111.302 4.73968 110.087 4.73968C108.903 4.73968 107.944 3.77878 107.944 2.59366V2.59374ZM115.748 19.6969C115.748 16.9425 117.763 15.4052 120.417 15.0208L124.575 14.4123C125.503 14.2841 125.759 13.8037 125.759 13.2592C125.759 11.7538 124.767 10.5048 122.432 10.5048C120.321 10.5048 119.138 11.818 118.946 13.6115L116.068 12.939C116.387 9.99236 119.042 7.94251 122.368 7.94251C126.974 7.94251 128.765 10.5688 128.765 13.5795V21.2984C128.765 22.6436 128.893 23.4442 128.957 23.8286H126.015C125.951 23.4442 125.855 22.8677 125.855 21.7468C125.183 22.8357 123.648 24.3091 120.897 24.3091C117.763 24.3091 115.748 22.1311 115.748 19.6969H115.748ZM121.313 21.7788C123.776 21.7788 125.759 20.5937 125.759 17.2308V16.5262L121.057 17.2308C119.778 17.4229 118.818 18.1596 118.818 19.5368C118.818 20.6898 119.778 21.7788 121.313 21.7788H121.313Z" fill="black"/>
</g>
<defs>
<clipPath id="clip0_1667_6139">
<rect width="129" height="24.8962" fill="white"/>
</clipPath>
</defs>
</svg>
