<svg width="21" height="19" viewBox="0 0 21 19" fill="none" xmlns="http://www.w3.org/2000/svg">
<path d="M16.4894 10.8958C18.4742 10.8958 20.0832 12.5048 20.0832 14.4896C20.0832 16.4104 18.5763 17.9792 16.6833 18.0783L16.4927 18.0833L15.5343 18.0877C15.1374 18.0896 14.8142 17.7692 14.8123 17.3722C14.8107 17.0084 15.0797 16.7065 15.4303 16.6572L15.5278 16.6502L16.4894 16.6458C17.6802 16.6458 18.6457 15.6804 18.6457 14.4896C18.6457 13.3483 17.759 12.4142 16.637 12.3383L16.4894 12.3333H15.5311C15.1341 12.3333 14.8123 12.0115 14.8123 11.6146C14.8123 11.2507 15.0828 10.95 15.4335 10.9023L15.5311 10.8958H16.4894ZM12.1769 10.8958C12.5739 10.8958 12.8957 11.2176 12.8957 11.6146C12.8957 11.9785 12.6252 12.2792 12.2745 12.3268L12.1769 12.3333H11.2186C10.0278 12.3333 9.06234 13.2988 9.06234 14.4896C9.06234 15.6309 9.94899 16.5649 11.071 16.6408L11.2186 16.6458H12.1769C12.5739 16.6458 12.8957 16.9676 12.8957 17.3646C12.8957 17.7285 12.6252 18.0292 12.2745 18.0768L12.1769 18.0833H11.2186C9.23378 18.0833 7.62484 16.4744 7.62484 14.4896C7.62484 12.5688 9.13172 11 11.0277 10.9008L11.2186 10.8958H12.1769ZM6.86481 0.833328C7.30618 0.833328 7.73533 0.968731 8.09532 1.21891L8.2452 1.3331L10.5209 3.22916H17.9269C19.0163 3.22916 19.917 4.03701 20.0626 5.0863L20.0782 5.23778L20.0832 5.38541L20.0839 11.6962C19.6959 11.1975 19.2063 10.7817 18.6462 10.4798L18.6457 5.38541C18.6457 5.02153 18.3752 4.72082 18.0245 4.67323L17.9269 4.66666H10.52L8.2452 6.56272C7.90614 6.84524 7.48977 7.01602 7.05305 7.05425L6.86481 7.06249L2.354 7.06154V14.0104C2.354 14.3743 2.6244 14.675 2.97522 14.7226L3.07275 14.7292L6.67273 14.7297C6.69901 15.2354 6.80778 15.719 6.98584 16.1678L3.07275 16.1667C1.93151 16.1667 0.997349 15.28 0.921478 14.158L0.916504 14.0104V2.98958C0.916504 1.84834 1.80312 0.914173 2.92512 0.838302L3.07275 0.833328H6.86481ZM16.4894 13.7708C16.8864 13.7708 17.2082 14.0926 17.2082 14.4896C17.2082 14.8535 16.9377 15.1542 16.587 15.2018L16.4894 15.2083H11.2186C10.8216 15.2083 10.4998 14.8865 10.4998 14.4896C10.4998 14.1257 10.7703 13.825 11.121 13.7773L11.2186 13.7708H16.4894ZM6.86481 2.27083H3.07275C2.70887 2.27083 2.40816 2.54122 2.36057 2.89205L2.354 2.98958V5.62404L6.86481 5.62499C6.99932 5.62499 7.13043 5.58727 7.24362 5.51707L7.32494 5.45841L9.13709 3.94695L7.32494 2.43742C7.2216 2.35131 7.09673 2.29636 6.96482 2.27782L6.86481 2.27083Z" fill="#2F80ED"/>
</svg>
