<svg width="24" height="23" viewBox="0 0 24 23" fill="none" xmlns="http://www.w3.org/2000/svg">
<path fill-rule="evenodd" clip-rule="evenodd" d="M9.74498 12.8552C9.26373 14.0942 7.86053 14.6824 7.47205 14.4711C7.2749 14.3683 7.47205 13.9743 7.47205 13.706C7.18794 13.8144 6.71828 14.02 6.43416 14.1342C7.07621 14.6766 7.44569 15.4681 7.44569 16.3011C7.44569 17.1342 7.07621 17.9257 6.43416 18.468C7.59381 20.181 7.01398 21.6543 5.39626 22.8019L5.33248 22.8419L5.29769 22.7276C5.09657 21.9366 4.71594 21.2006 4.18442 20.575C3.90031 20.2495 3.5756 19.9527 3.25669 19.6558C2.83922 19.2675 2.43333 18.8678 2.05645 18.4452C0.461915 16.8008 -0.1701 13.9058 0.0386388 11.6675C0.151006 10.5181 0.493933 9.40213 1.04754 8.38424C1.48552 7.57228 2.03151 6.82145 2.67105 6.15164C4.10526 4.63674 5.919 3.52016 7.93012 2.91408C9.69726 2.3137 11.6306 2.40155 13.3341 3.15961C13.6482 3.32377 13.947 3.51484 14.2271 3.7306L14.6387 4.11318L14.6851 4.15886L22.4374 0.247517C23.0753 -0.0665329 23.5566 -0.0665329 23.7711 0.161866C23.9855 0.390266 23.6841 0.978395 23.2318 1.30386L16.5637 6.04886C16.6433 6.50153 16.5064 6.96503 16.1928 7.30505C17.0798 7.60769 16.297 8.88672 15.9086 9.34352C14.7953 10.6397 12.7601 11.6561 10.9452 12.3984C10.4582 12.6039 10.1798 12.6896 9.74498 12.8494V12.8552ZM5.40786 14.5624C4.68308 14.8879 3.26828 15.6131 3.40165 16.4011C3.58719 16.8864 4.16123 16.4011 4.37576 16.1726C4.83858 15.7305 5.19175 15.1893 5.40786 14.591V14.5624Z" fill="#383C42"/>
<path fill-rule="evenodd" clip-rule="evenodd" d="M15.8273 8.37299C16.3259 7.75631 15.9781 7.4023 15.6302 7.74489C14.9246 8.40741 13.939 8.69625 12.9804 8.52145C11.6178 8.29876 11.554 8.0932 11.7859 7.89336C13.3678 8.41752 15.1103 7.8354 16.0419 6.47156C16.3781 5.99763 15.2533 5.62078 14.5923 4.75857C11.4148 0.510342 1.46497 4.19327 0.514051 11.5763C0.200856 13.8813 0.889276 16.2095 2.41009 17.9886C3.56974 19.2848 4.83377 19.8272 5.54697 21.8658C6.93855 20.6894 6.70662 19.3591 5.70352 18.1942C6.43277 17.8297 6.91317 17.1138 6.96789 16.3104C7.0226 15.5068 6.64353 14.7342 5.97024 14.2771C5.39041 16.3385 3.35521 17.863 2.87975 16.4013C2.57244 14.9109 5.06572 13.9231 9.05494 12.4042C12.3948 11.1709 14.5517 10.1545 15.8273 8.33873" fill="#31D3DB"/>
<path fill-rule="evenodd" clip-rule="evenodd" d="M15.8274 8.37263C16.326 7.75596 15.9782 7.40194 15.6302 7.74454C15.0178 8.32665 14.1832 8.62549 13.3341 8.56677C11.9599 8.46971 10.8641 8.20134 9.85515 8.30982C7.98153 8.58631 6.24876 9.45152 4.915 10.7765C3.17552 12.5352 1.25049 16.1896 3.17552 16.8977C3.02891 16.7698 2.93077 16.5966 2.8972 16.4066C2.58989 14.9163 5.08317 13.9285 9.07238 12.4096C12.4122 11.1762 14.5692 10.1599 15.8448 8.34408" fill="white"/>
<path fill-rule="evenodd" clip-rule="evenodd" d="M7.275 11.2566C8.30129 11.7534 8.09836 13.4892 7.94761 13.9232C9.89583 13.3522 9.31599 10.5371 10.2205 9.66922C9.06087 9.63496 6.9619 10.7598 7.275 11.2566Z" fill="#31D3DB"/>
<path fill-rule="evenodd" clip-rule="evenodd" d="M10.5683 6.10575C10.7484 5.95212 11.0056 5.9226 11.2167 6.03132C11.4278 6.14002 11.5499 6.36484 11.5245 6.59812C11.4992 6.83139 11.3315 7.02565 11.1018 7.08786C10.8406 7.15861 10.5645 7.04185 10.4367 6.80663C10.309 6.57141 10.3636 6.28042 10.5683 6.10575Z" fill="#383C42"/>
<path fill-rule="evenodd" clip-rule="evenodd" d="M15.2998 6.33988L23.1217 0.978208C23.3421 0.824038 23.632 0.492858 23.5102 0.33298C23.3884 0.1731 23.0521 0.25875 22.7622 0.390078L14.3083 4.88954C14.0357 5.46055 14.5866 6.63109 15.3056 6.33988" fill="#31D3DB"/>
<path fill-rule="evenodd" clip-rule="evenodd" d="M14.6155 5.28397L22.7853 0.573228C22.9961 0.43177 23.2435 0.352531 23.4985 0.344828C23.3768 0.20779 23.0404 0.28773 22.7621 0.419058L14.3082 4.88997C14.1378 5.42755 14.348 6.01137 14.8242 6.32317C14.6495 6.00349 14.5767 5.63931 14.6155 5.27826" fill="white"/>
<path fill-rule="evenodd" clip-rule="evenodd" d="M2.57825 7.38519C2.6986 7.35945 2.82421 7.39141 2.91683 7.47134C3.00944 7.55128 3.05807 7.66974 3.04791 7.79061C3.05161 8.07348 2.84442 8.31636 2.56085 8.3616C2.44243 8.38493 2.31974 8.35268 2.22886 8.27437C2.13797 8.19606 2.08925 8.08058 2.09699 7.9619C2.10622 7.6857 2.30426 7.45072 2.57825 7.3909" fill="#21AAAD"/>
<path fill-rule="evenodd" clip-rule="evenodd" d="M4.16128 5.66651C4.26749 5.64433 4.37809 5.67312 4.45928 5.74409C4.5405 5.81504 4.58268 5.91976 4.57295 6.02625C4.55412 6.26822 4.38205 6.47205 4.14389 6.53443C4.03767 6.55661 3.92708 6.52782 3.84588 6.45685C3.76467 6.3859 3.72248 6.2812 3.73221 6.1747C3.75103 5.93272 3.92312 5.72891 4.16128 5.66651Z" fill="#21AAAD"/>
<path fill-rule="evenodd" clip-rule="evenodd" d="M8.96222 3.38775C9.06924 3.39164 9.16822 3.44465 9.2297 3.53099C9.2912 3.61733 9.30808 3.72703 9.27533 3.82742C9.2099 4.06097 8.99371 4.2224 8.74769 4.22142C8.63956 4.21869 8.53885 4.16658 8.47523 4.08044C8.4116 3.99429 8.39231 3.88389 8.42298 3.78175C8.48897 3.54612 8.70825 3.38415 8.95642 3.38775" fill="#21AAAD"/>
<path fill-rule="evenodd" clip-rule="evenodd" d="M10.435 3.15404C10.5251 3.16856 10.6031 3.22407 10.6453 3.30386C10.6875 3.38365 10.6891 3.47836 10.6495 3.55945C10.5617 3.74365 10.3607 3.84842 10.1566 3.8164C10.0712 3.80047 9.99748 3.74759 9.95591 3.67234C9.91434 3.5971 9.90926 3.50745 9.94211 3.42812C10.0242 3.23721 10.2265 3.12468 10.435 3.15404Z" fill="#21AAAD"/>
<path fill-rule="evenodd" clip-rule="evenodd" d="M4.17874 6.74528C4.258 6.72862 4.34059 6.75005 4.40123 6.80302C4.46187 6.85596 4.49335 6.93415 4.48605 7.01365C4.48128 7.1957 4.34867 7.35004 4.16714 7.38479C4.08894 7.40108 4.00752 7.38032 3.94715 7.32873C3.88679 7.27713 3.85447 7.20066 3.85983 7.12213C3.86814 6.94026 3.99856 6.78612 4.17874 6.74528Z" fill="#21AAAD"/>
<path fill-rule="evenodd" clip-rule="evenodd" d="M1.70853 8.76664C1.79019 8.74794 1.87603 8.76902 1.9392 8.82332C2.00238 8.87761 2.0352 8.95851 2.02744 9.04072C2.02097 9.22956 1.88462 9.38975 1.69693 9.42901C1.61192 9.44583 1.52386 9.42181 1.45975 9.36431C1.39565 9.30681 1.36315 9.22271 1.37223 9.1378C1.37932 8.94723 1.51855 8.78647 1.70853 8.74951" fill="#21AAAD"/>
<path fill-rule="evenodd" clip-rule="evenodd" d="M22.0315 0.76709L21.817 0.881289C21.869 1.13331 22.0059 1.36065 22.2055 1.52652C22.0948 1.28795 22.0356 1.02936 22.0315 0.76709ZM20.1761 1.7492L19.9326 1.88054C19.9326 2.18888 20.1587 2.65139 20.4139 2.71419C20.2477 2.42039 20.175 2.08419 20.2051 1.7492H20.1761ZM18.2511 2.777L17.9322 2.94831C17.981 3.37705 18.2212 3.76213 18.5873 3.99893C18.3803 3.62427 18.2745 3.20351 18.2801 2.777H18.2511ZM16.3318 3.81622L15.9666 3.99893C16.0095 4.51655 16.2973 4.98405 16.7435 5.26084C16.4611 4.83139 16.3176 4.32768 16.3318 3.81622Z" fill="#21AAAD"/>
</svg>
