<svg width="18" height="16" viewBox="0 0 18 16" fill="none" xmlns="http://www.w3.org/2000/svg">
<path opacity="0.4" d="M17.1878 14.394L13.3656 10.7669C14.2858 9.60434 14.7826 8.18932 14.7809 6.73536C14.7809 3.02151 11.597 0 7.68343 0C3.7699 0 0.585938 3.02151 0.585938 6.73536C0.585938 10.4492 3.7699 13.4707 7.68343 13.4707C9.21556 13.4723 10.7067 13.0009 11.9317 12.1277L15.7538 15.7548C15.9473 15.9189 16.1996 16.0065 16.459 15.9996C16.7184 15.9927 16.9652 15.8919 17.1487 15.7177C17.3322 15.5436 17.4385 15.3094 17.4458 15.0632C17.453 14.8171 17.3607 14.5776 17.1878 14.394ZM2.61379 6.73536C2.61379 5.78384 2.91112 4.85369 3.46818 4.06253C4.02524 3.27137 4.81701 2.65473 5.74336 2.2906C6.66971 1.92647 7.68905 1.8312 8.67246 2.01683C9.65588 2.20246 10.5592 2.66066 11.2682 3.33349C11.9772 4.00632 12.46 4.86355 12.6556 5.79679C12.8513 6.73002 12.7509 7.69735 12.3672 8.57644C11.9834 9.45553 11.3337 10.2069 10.5 10.7355C9.66627 11.2642 8.6861 11.5463 7.68343 11.5463C6.33937 11.5448 5.05083 11.0374 4.10043 10.1355C3.15004 9.23364 2.6154 8.01084 2.61379 6.73536Z" fill="black"/>
</svg>
