<svg width="22" height="18" viewBox="0 0 22 18" fill="none" xmlns="http://www.w3.org/2000/svg">
<path d="M20 4.5H15.5V1.5C15.5 1.10218 15.342 0.720644 15.0607 0.43934C14.7794 0.158035 14.3978 0 14 0H8C7.60218 0 7.22064 0.158035 6.93934 0.43934C6.65804 0.720644 6.5 1.10218 6.5 1.5V4.5H2C1.60218 4.5 1.22064 4.65804 0.93934 4.93934C0.658035 5.22064 0.5 5.60218 0.5 6V16.5C0.5 16.8978 0.658035 17.2794 0.93934 17.5607C1.22064 17.842 1.60218 18 2 18H20C20.3978 18 20.7794 17.842 21.0607 17.5607C21.342 17.2794 21.5 16.8978 21.5 16.5V6C21.5 5.60218 21.342 5.22064 21.0607 4.93934C20.7794 4.65804 20.3978 4.5 20 4.5ZM8 1.5H14V4.5H8V1.5ZM2 16.5V6H20V16.5H2Z" fill="white"/>
</svg>
