<svg width="270" height="140" viewBox="0 0 270 140" fill="none" xmlns="http://www.w3.org/2000/svg">
<g filter="url(#filter0_d_4930_7006)">
<rect x="10" y="8" width="250" height="120" rx="10" fill="#DFF1FF"/>
<rect x="10.25" y="8.25" width="249.5" height="119.5" rx="9.75" stroke="#2F9FF0" stroke-width="0.5"/>
</g>
<mask id="mask0_4930_7006" style="mask-type:alpha" maskUnits="userSpaceOnUse" x="10" y="60" width="250" height="68">
<rect x="10" y="60" width="250" height="68" fill="#C4C4C4"/>
</mask>
<g mask="url(#mask0_4930_7006)">
<path d="M10 96.5L15.5183 90.1769C25.9144 78.2647 43.7712 76.4656 56.3346 86.0646L57.386 86.868C69.4382 96.0764 86.4673 94.8407 97.0638 83.9888L109.156 71.6051C115.537 65.0702 125.535 63.6886 133.449 68.2479L145.582 75.2372C158.182 82.4961 173.729 82.345 186.186 74.8426L205.468 63.2295C208.303 61.5219 211.8 61.3278 214.806 62.7109L254.179 80.8224C257.727 82.4543 260 86.0022 260 89.9073V118.5C260 124.023 255.523 128.5 250 128.5H20C14.4772 128.5 10 124.023 10 118.5V96.5Z" fill="url(#paint0_linear_4930_7006)"/>
</g>
<defs>
<filter id="filter0_d_4930_7006" x="0" y="0" width="270" height="140" filterUnits="userSpaceOnUse" color-interpolation-filters="sRGB">
<feFlood flood-opacity="0" result="BackgroundImageFix"/>
<feColorMatrix in="SourceAlpha" type="matrix" values="0 0 0 0 0 0 0 0 0 0 0 0 0 0 0 0 0 0 127 0" result="hardAlpha"/>
<feOffset dy="2"/>
<feGaussianBlur stdDeviation="5"/>
<feComposite in2="hardAlpha" operator="out"/>
<feColorMatrix type="matrix" values="0 0 0 0 0.592157 0 0 0 0 0.592157 0 0 0 0 0.592157 0 0 0 0.14 0"/>
<feBlend mode="normal" in2="BackgroundImageFix" result="effect1_dropShadow_4930_7006"/>
<feBlend mode="normal" in="SourceGraphic" in2="effect1_dropShadow_4930_7006" result="shape"/>
</filter>
<linearGradient id="paint0_linear_4930_7006" x1="135" y1="60.5" x2="135" y2="128.5" gradientUnits="userSpaceOnUse">
<stop stop-color="#ABDAFF"/>
<stop offset="1" stop-color="#DFF1FF" stop-opacity="0"/>
</linearGradient>
</defs>
</svg>
