<svg width="270" height="140" viewBox="0 0 270 140" fill="none" xmlns="http://www.w3.org/2000/svg">
<g filter="url(#filter0_d_4930_7014)">
<rect x="10" y="8" width="250" height="120" rx="10" fill="#FFE8DD"/>
<rect x="10.25" y="8.25" width="249.5" height="119.5" rx="9.75" stroke="#F46321" stroke-width="0.5"/>
</g>
<mask id="mask0_4930_7014" style="mask-type:alpha" maskUnits="userSpaceOnUse" x="10" y="60" width="250" height="68">
<rect x="10" y="60" width="250" height="68" fill="#C4C4C4"/>
</mask>
<g mask="url(#mask0_4930_7014)">
<path d="M10 84L41.6936 99.6297C44.6959 101.11 48.2399 100.99 51.1353 99.3104L73.7683 86.1777C82.0803 81.3547 92.1997 80.8055 100.985 84.7008L123.769 94.8031C133.779 99.2415 145.412 97.8736 154.119 91.2342L169.044 79.8541C175.388 75.0165 184.284 75.4086 190.179 80.7857V80.7857C201.032 90.6874 217.123 92.2256 229.656 84.5597L244.782 75.308C251.446 71.2323 260 76.0277 260 83.8388V89V124C260 129.523 255.523 134 250 134H20C14.4772 134 10 129.523 10 124V84Z" fill="url(#paint0_linear_4930_7014)"/>
</g>
<defs>
<filter id="filter0_d_4930_7014" x="0" y="0" width="270" height="140" filterUnits="userSpaceOnUse" color-interpolation-filters="sRGB">
<feFlood flood-opacity="0" result="BackgroundImageFix"/>
<feColorMatrix in="SourceAlpha" type="matrix" values="0 0 0 0 0 0 0 0 0 0 0 0 0 0 0 0 0 0 127 0" result="hardAlpha"/>
<feOffset dy="2"/>
<feGaussianBlur stdDeviation="5"/>
<feComposite in2="hardAlpha" operator="out"/>
<feColorMatrix type="matrix" values="0 0 0 0 0.592157 0 0 0 0 0.592157 0 0 0 0 0.592157 0 0 0 0.14 0"/>
<feBlend mode="normal" in2="BackgroundImageFix" result="effect1_dropShadow_4930_7014"/>
<feBlend mode="normal" in="SourceGraphic" in2="effect1_dropShadow_4930_7014" result="shape"/>
</filter>
<linearGradient id="paint0_linear_4930_7014" x1="135" y1="57" x2="135" y2="117.5" gradientUnits="userSpaceOnUse">
<stop stop-color="#FFD6C4"/>
<stop offset="1" stop-color="#FFCBB4" stop-opacity="0"/>
</linearGradient>
</defs>
</svg>
