<svg width="95" height="94" viewBox="0 0 95 94" fill="none" xmlns="http://www.w3.org/2000/svg">
<g clip-path="url(#clip0_513_5835)">
<path d="M47.5004 94.5853C73.5049 94.5853 94.5858 73.5044 94.5858 47.4999C94.5858 21.4954 73.5049 0.414551 47.5004 0.414551C21.4959 0.414551 0.415039 21.4954 0.415039 47.4999C0.415039 73.5044 21.4959 94.5853 47.5004 94.5853Z" fill="#BDBDBD"/>
<path d="M82.7072 72.7782C80.5384 71.0615 77.8959 69.8255 75.029 69.2263L61.3616 66.4796C59.9282 66.205 58.8937 64.919 58.8937 63.4209V60.2809C59.7724 59.045 60.6013 57.4032 61.4676 55.6866C62.1407 54.3569 63.1565 52.3531 63.6614 51.835C66.4285 49.0509 69.1021 45.9235 69.931 41.8909C70.7038 38.108 69.9435 36.1229 69.0523 34.5249C69.0523 30.536 68.9276 25.5421 67.9865 21.909C67.8744 16.99 66.9832 14.2247 64.7395 11.8026C63.1565 10.086 60.8257 9.68647 58.9497 9.36811C58.2143 9.24326 57.1985 9.06847 56.8245 8.86872C53.5027 7.07091 50.2183 6.19074 46.2982 6.12207C38.0903 6.45916 28.0002 11.6903 24.6224 21.0164C23.5753 23.8567 23.6813 28.5197 23.7685 32.2652L23.6875 34.5186C22.8835 36.0917 22.092 38.0893 22.8711 41.8847C23.6937 45.9235 26.3674 49.0571 29.1844 51.8787C29.6456 52.3531 30.6864 54.3757 31.3719 55.7115C32.2507 57.4219 33.0858 59.0574 33.9645 60.2872V63.4271C33.9645 64.919 32.9237 66.205 31.4841 66.4859L17.8042 69.2325C14.9561 69.838 12.3136 71.0615 10.151 72.7782C9.47791 73.3213 9.05412 74.1141 8.98557 74.9755C8.91701 75.837 9.20369 76.6797 9.7833 77.3226C19.0943 87.6101 32.4501 93.5154 46.4291 93.5154C60.4081 93.5154 73.7701 87.6163 83.0749 77.3226C83.6545 76.6797 83.9474 75.8307 83.8726 74.9693C83.8041 74.1078 83.3803 73.315 82.7072 72.7782Z" fill="#455A64"/>
</g>
<defs>
<clipPath id="clip0_513_5835">
<rect width="95" height="94" rx="25" fill="white"/>
</clipPath>
</defs>
</svg>
